<?xml version="1.0" encoding="UTF-8" standalone="no"?>
<!-- Created with Inkscape (http://www.inkscape.org/) -->

<svg
   xmlns:dc="http://purl.org/dc/elements/1.1/"
   xmlns:cc="http://creativecommons.org/ns#"
   xmlns:rdf="http://www.w3.org/1999/02/22-rdf-syntax-ns#"
   xmlns:svg="http://www.w3.org/2000/svg"
   xmlns="http://www.w3.org/2000/svg"
   xmlns:sodipodi="http://sodipodi.sourceforge.net/DTD/sodipodi-0.dtd"
   xmlns:inkscape="http://www.inkscape.org/namespaces/inkscape"
   width="90mm"
   height="90mm"
   viewBox="0 0 90 90"
   version="1.1"
   id="svg8"
   inkscape:version="0.92.3 (2405546, 2018-03-11)"
   sodipodi:docname="14.svg">
  <defs
     id="defs2" />
  <sodipodi:namedview
     id="base"
     pagecolor="#e6e6e6"
     bordercolor="#666666"
     borderopacity="1.0"
     inkscape:pageopacity="0"
     inkscape:pageshadow="2"
     inkscape:zoom="0.7"
     inkscape:cx="188.28919"
     inkscape:cy="225.27148"
     inkscape:document-units="mm"
     inkscape:current-layer="layer1"
     showgrid="false"
     showguides="true"
     inkscape:guide-bbox="true"
     inkscape:snap-object-midpoints="true"
     inkscape:pagecheckerboard="false"
     inkscape:window-width="1916"
     inkscape:window-height="1076"
     inkscape:window-x="0"
     inkscape:window-y="0"
     inkscape:window-maximized="1">
    <sodipodi:guide
       position="30.000001,30.000001"
       orientation="1,0"
       id="guide815"
       inkscape:locked="false"
       inkscape:label=""
       inkscape:color="rgb(0,0,255)" />
    <sodipodi:guide
       position="60.000002,131.49661"
       orientation="1,0"
       id="guide817"
       inkscape:locked="false"
       inkscape:label=""
       inkscape:color="rgb(0,0,255)" />
    <sodipodi:guide
       position="88.466216,30.000001"
       orientation="0,1"
       id="guide819"
       inkscape:locked="false"
       inkscape:label=""
       inkscape:color="rgb(0,0,255)" />
    <sodipodi:guide
       position="-72.964583,60.135646"
       orientation="0,1"
       id="guide821"
       inkscape:locked="false"
       inkscape:label=""
       inkscape:color="rgb(0,0,255)" />
    <sodipodi:guide
       position="85.526251,0"
       orientation="0,1"
       id="guide823"
       inkscape:locked="false"
       inkscape:label=""
       inkscape:color="rgb(0,0,255)" />
    <sodipodi:guide
       position="82.319017,90.000003"
       orientation="0,1"
       id="guide825"
       inkscape:locked="false"
       inkscape:label=""
       inkscape:color="rgb(0,0,255)" />
    <sodipodi:guide
       position="0,160.62899"
       orientation="1,0"
       id="guide827"
       inkscape:locked="false"
       inkscape:label=""
       inkscape:color="rgb(0,0,255)" />
    <sodipodi:guide
       position="90.000003,153.67998"
       orientation="1,0"
       id="guide829"
       inkscape:locked="false"
       inkscape:label=""
       inkscape:color="rgb(0,0,255)" />
    <sodipodi:guide
       position="-12.561668,-30.000001"
       orientation="0,1"
       id="guide860"
       inkscape:locked="false"
       inkscape:label=""
       inkscape:color="rgb(0,0,255)" />
    <sodipodi:guide
       position="-17.37252,120"
       orientation="0,1"
       id="guide862"
       inkscape:locked="false"
       inkscape:label=""
       inkscape:color="rgb(0,0,255)" />
    <sodipodi:guide
       position="-29.934188,60.000002"
       orientation="1,0"
       id="guide864"
       inkscape:locked="false"
       inkscape:label=""
       inkscape:color="rgb(0,0,255)" />
    <sodipodi:guide
       position="120,153.14544"
       orientation="1,0"
       id="guide866"
       inkscape:locked="false"
       inkscape:label=""
       inkscape:color="rgb(0,0,255)" />
    <sodipodi:guide
       position="15,43.656251"
       orientation="1,0"
       id="guide868"
       inkscape:locked="false"
       inkscape:label=""
       inkscape:color="rgb(0,0,255)" />
    <sodipodi:guide
       position="18.331846,15"
       orientation="0,1"
       id="guide870"
       inkscape:locked="false"
       inkscape:label=""
       inkscape:color="rgb(0,0,255)" />
  </sodipodi:namedview>
  <metadata
     id="metadata5">
    <rdf:RDF>
      <cc:Work
         rdf:about="">
        <dc:format>image/svg+xml</dc:format>
        <dc:type
           rdf:resource="http://purl.org/dc/dcmitype/StillImage" />
        <dc:title></dc:title>
      </cc:Work>
    </rdf:RDF>
  </metadata>
  <g
     inkscape:label="Layer 1"
     inkscape:groupmode="layer"
     id="layer1"
     transform="translate(0,-207)">
    <circle
       style="opacity:1;fill:#ffffff;fill-opacity:1;stroke:none;stroke-width:0.1;stroke-linecap:round;stroke-linejoin:round;stroke-miterlimit:4;stroke-dasharray:none;stroke-opacity:1;paint-order:stroke fill markers"
       id="path833"
       cx="-89.99971"
       cy="-206.99954"
       r="30"
       transform="scale(-1)" />
    <path
       inkscape:connector-curvature="0"
       style="opacity:1;fill:#ffffff;fill-opacity:1;stroke:none;stroke-width:0.1;stroke-linecap:round;stroke-linejoin:round;stroke-miterlimit:4;stroke-dasharray:none;stroke-opacity:1;paint-order:stroke fill markers"
       d="m -4.77e-4,326.99977 a 30,30 0 0 0 30.00023,-30.00025 h 29.99972 0.0501 a 29.95,29.95 0 0 0 29.95012,29.95012 29.95,29.95 0 0 0 29.950107,-29.95012 29.95,29.95 0 0 0 -29.950117,-29.95011 29.95,29.95 0 0 0 -0.0522,0.002 l 0.0522,-0.0521 -59.99995,-59.99995 -0.0527,0.0527 a 29.95,29.95 0 0 0 0.003,-0.0527 29.95,29.95 0 0 0 -29.95017,-29.94959 29.95,29.95 0 0 0 -29.94958,29.94959 29.95,29.95 0 0 0 29.94958,29.95011 29.95,29.95 0 0 0 0.0522,-0.002 l -0.0522,0.0523 30.13563,30.13562 H 2.715973 a 30,30 0 0 0 -2.71611,-0.13591 30,30 0 0 0 -29.99967,30.00007 30,30 0 0 0 29.99972,30.00025 z"
       id="path833-3" />
    <circle
       style="opacity:1;fill:#000000;fill-opacity:1;stroke:none;stroke-width:0.1;stroke-linecap:round;stroke-linejoin:round;stroke-miterlimit:4;stroke-dasharray:none;stroke-opacity:1;paint-order:stroke fill markers"
       id="path2554"
       cx="44.999718"
       cy="-296.99951"
       r="14.999998"
       transform="scale(1,-1)" />
    <path
       style="fill:none;fill-rule:evenodd;stroke:none;stroke-width:0.26458332px;stroke-linecap:butt;stroke-linejoin:miter;stroke-opacity:1"
       d="M 60.332793,296.99952 H -2.87e-4 v -60 h 36.01155 l 38.98845,46.97362 -14.94753,12.97367 v 0"
       id="path2558"
       inkscape:connector-curvature="0" />
    <path
       inkscape:connector-curvature="0"
       style="opacity:1;fill:#000000;fill-opacity:1;stroke:none;stroke-width:0.09999998;stroke-linecap:round;stroke-linejoin:round;stroke-miterlimit:4;stroke-dasharray:none;stroke-opacity:1;paint-order:stroke fill markers"
       d="m -0.044927,267.04683 c 0.76518,0 1.52536,-0.0192 2.28358,-0.0476 h 87.76105 a 15,15 0 0 0 14.999607,-15.00006 15,15 0 0 0 -14.999607,-14.9996 c -16.56872,1.3e-4 -30.00036,-13.43152 -30.00023,-30.00024 a 14.999999,14.999999 0 0 0 -15.00012,-15.00012 14.999999,14.999999 0 0 0 -8.48062,2.64739 14.999999,14.999999 0 0 0 -0.10748,0.077 14.999999,14.999999 0 0 0 -1.01545,0.77153 14.999999,14.999999 0 0 0 -0.33693,0.29611 14.999999,14.999999 0 0 0 -0.69866,0.6506 14.999999,14.999999 0 0 0 -0.5302,0.56948 14.999999,14.999999 0 0 0 -0.4129,0.47025 14.999999,14.999999 0 0 0 -0.66559,0.8754 14.999999,14.999999 0 0 0 -0.1788,0.2496 14.999999,14.999999 0 0 0 -0.72761,1.18649 14.999999,14.999999 0 0 0 -0.0124,0.0217 14.999999,14.999999 0 0 0 -1.8774,7.23211 c 1.2e-4,16.00649 -12.53605,29.08364 -28.3254,29.9527 h -1.63039 v 0.047 c -0.0149,2e-5 -0.0296,5.3e-4 -0.0444,5.3e-4 a 15,15 0 0 0 -14.99961,14.9996 15,15 0 0 0 14.99961,15.00012 z"
       id="path904-5" />
  </g>
</svg>
