<?xml version="1.0" encoding="UTF-8" standalone="no"?>
<!-- Created with Inkscape (http://www.inkscape.org/) -->

<svg
   xmlns:dc="http://purl.org/dc/elements/1.1/"
   xmlns:cc="http://creativecommons.org/ns#"
   xmlns:rdf="http://www.w3.org/1999/02/22-rdf-syntax-ns#"
   xmlns:svg="http://www.w3.org/2000/svg"
   xmlns="http://www.w3.org/2000/svg"
   xmlns:sodipodi="http://sodipodi.sourceforge.net/DTD/sodipodi-0.dtd"
   xmlns:inkscape="http://www.inkscape.org/namespaces/inkscape"
   width="90mm"
   height="90mm"
   viewBox="0 0 90 90"
   version="1.1"
   id="svg8"
   sodipodi:docname="04.svg"
   inkscape:version="0.92.3 (2405546, 2018-03-11)">
  <defs
     id="defs2">
    <inkscape:perspective
       sodipodi:type="inkscape:persp3d"
       inkscape:vp_x="0 : 45 : 1"
       inkscape:vp_y="0 : 1000 : 0"
       inkscape:vp_z="90 : 45 : 1"
       inkscape:persp3d-origin="45 : 30 : 1"
       id="perspective2990" />
  </defs>
  <sodipodi:namedview
     id="base"
     pagecolor="#e6e6e6"
     bordercolor="#666666"
     borderopacity="1.0"
     inkscape:pageopacity="0"
     inkscape:pageshadow="2"
     inkscape:zoom="1.4"
     inkscape:cx="185.17616"
     inkscape:cy="131.4289"
     inkscape:document-units="mm"
     inkscape:current-layer="layer1"
     showgrid="false"
     showguides="true"
     inkscape:guide-bbox="true"
     inkscape:snap-object-midpoints="true"
     inkscape:pagecheckerboard="false"
     inkscape:window-width="1916"
     inkscape:window-height="1076"
     inkscape:window-x="0"
     inkscape:window-y="0"
     inkscape:window-maximized="1"
     inkscape:snap-intersection-paths="true">
    <sodipodi:guide
       position="30.000001,163.56896"
       orientation="1,0"
       id="guide815"
       inkscape:locked="false"
       inkscape:label=""
       inkscape:color="rgb(0,0,255)" />
    <sodipodi:guide
       position="60.000002,131.49661"
       orientation="1,0"
       id="guide817"
       inkscape:locked="false"
       inkscape:label=""
       inkscape:color="rgb(0,0,255)" />
    <sodipodi:guide
       position="88.466216,30.000001"
       orientation="0,1"
       id="guide819"
       inkscape:locked="false"
       inkscape:label=""
       inkscape:color="rgb(0,0,255)" />
    <sodipodi:guide
       position="85.526251,60.000002"
       orientation="0,1"
       id="guide821"
       inkscape:locked="false"
       inkscape:label=""
       inkscape:color="rgb(0,0,255)" />
    <sodipodi:guide
       position="85.526251,0"
       orientation="0,1"
       id="guide823"
       inkscape:locked="false"
       inkscape:label=""
       inkscape:color="rgb(0,0,255)" />
    <sodipodi:guide
       position="82.319017,90.000003"
       orientation="0,1"
       id="guide825"
       inkscape:locked="false"
       inkscape:label=""
       inkscape:color="rgb(0,0,255)" />
    <sodipodi:guide
       position="0,160.62899"
       orientation="1,0"
       id="guide827"
       inkscape:locked="false"
       inkscape:label=""
       inkscape:color="rgb(0,0,255)" />
    <sodipodi:guide
       position="90.000003,153.67998"
       orientation="1,0"
       id="guide829"
       inkscape:locked="false"
       inkscape:label=""
       inkscape:color="rgb(0,0,255)" />
    <sodipodi:guide
       position="-12.561668,-30.000001"
       orientation="0,1"
       id="guide860"
       inkscape:locked="false"
       inkscape:label=""
       inkscape:color="rgb(0,0,255)" />
    <sodipodi:guide
       position="-17.37252,120"
       orientation="0,1"
       id="guide862"
       inkscape:locked="false"
       inkscape:label=""
       inkscape:color="rgb(0,0,255)" />
    <sodipodi:guide
       position="-29.934188,60.000002"
       orientation="1,0"
       id="guide864"
       inkscape:locked="false"
       inkscape:label=""
       inkscape:color="rgb(0,0,255)" />
    <sodipodi:guide
       position="120,153.14544"
       orientation="1,0"
       id="guide866"
       inkscape:locked="false"
       inkscape:label=""
       inkscape:color="rgb(0,0,255)" />
    <sodipodi:guide
       position="15,43.656251"
       orientation="1,0"
       id="guide868"
       inkscape:locked="false"
       inkscape:label=""
       inkscape:color="rgb(0,0,255)" />
    <sodipodi:guide
       position="18.331846,15"
       orientation="0,1"
       id="guide870"
       inkscape:locked="false"
       inkscape:label=""
       inkscape:color="rgb(0,0,255)" />
  </sodipodi:namedview>
  <metadata
     id="metadata5">
    <rdf:RDF>
      <cc:Work
         rdf:about="">
        <dc:format>image/svg+xml</dc:format>
        <dc:type
           rdf:resource="http://purl.org/dc/dcmitype/StillImage" />
        <dc:title></dc:title>
      </cc:Work>
    </rdf:RDF>
  </metadata>
  <g
     inkscape:label="Layer 1"
     inkscape:groupmode="layer"
     id="layer1"
     transform="translate(0,-207)">
    <circle
       style="opacity:1;fill:#ffffff;fill-opacity:1;stroke:none;stroke-width:0.1;stroke-linecap:round;stroke-linejoin:round;stroke-miterlimit:4;stroke-dasharray:none;stroke-opacity:1;paint-order:stroke fill markers"
       id="path833"
       cx="4.2131041e-09"
       cy="296.99997"
       r="30" />
    <circle
       style="opacity:1;fill:#ffffff;fill-opacity:1;stroke:none;stroke-width:0.1;stroke-linecap:round;stroke-linejoin:round;stroke-miterlimit:4;stroke-dasharray:none;stroke-opacity:1;paint-order:stroke fill markers"
       id="path833-3"
       cx="89.999992"
       cy="207"
       r="30" />
    <path
       style="opacity:1;fill:#000000;fill-opacity:1;stroke:none;stroke-width:0.37795269;stroke-linecap:round;stroke-linejoin:round;stroke-miterlimit:4;stroke-dasharray:none;stroke-opacity:1;paint-order:stroke fill markers"
       d="M 170.08008 -56.705078 A 56.69291 56.69291 0 0 0 114.20898 -9.6367188 A 56.692913 56.692913 0 0 0 114.10742 -8.7949219 A 56.69291 56.69291 0 0 0 113.49414 -3.0585938 A 56.692913 56.692913 0 0 0 113.38477 0 C 113.38477 0.023502677 113.38476 0.046811494 113.38477 0.0703125 C 113.3408 62.654454 62.594497 113.37549 0 113.375 A 56.69291 56.69291 0 0 0 -44.410156 134.82617 A 56.692913 56.692913 0 0 0 -44.410156 134.82812 A 56.69291 56.69291 0 0 0 -50.525391 144.35156 A 56.692913 56.692913 0 0 0 -50.525391 144.35352 A 56.69291 56.69291 0 0 0 -56.693359 170.06641 A 56.69291 56.69291 0 0 0 -35.242188 214.47461 A 56.692913 56.692913 0 0 0 -35.240234 214.47461 A 56.69291 56.69291 0 0 0 -30.632812 217.77148 A 56.692913 56.692913 0 0 0 -30.630859 217.77148 A 56.69291 56.69291 0 0 0 -25.716797 220.5918 A 56.692913 56.692913 0 0 0 -25.714844 220.5918 A 56.69291 56.69291 0 0 0 -20.544922 222.90625 A 56.692913 56.692913 0 0 0 -20.542969 222.90625 A 56.69291 56.69291 0 0 0 -15.167969 224.69336 A 56.692913 56.692913 0 0 0 -15.166016 224.69336 A 56.69291 56.69291 0 0 0 -9.6386719 225.93359 A 56.692913 56.692913 0 0 0 -9.6347656 225.93359 A 56.69291 56.69291 0 0 0 -4.0117188 226.61719 A 56.692913 56.692913 0 0 0 -4.0097656 226.61719 A 56.69291 56.69291 0 0 0 0 226.75977 C 62.62197 226.75927 113.38721 277.52455 113.38672 340.14648 A 56.692913 56.692913 0 0 0 113.38672 340.14844 C 113.38672 340.1517 113.38672 340.15494 113.38672 340.1582 A 56.692913 56.692913 0 0 0 113.66992 345.80664 A 56.69291 56.69291 0 0 0 170.07812 396.85156 A 56.69291 56.69291 0 0 0 226.62891 344.1543 A 56.692913 56.692913 0 0 0 226.77148 340.14648 C 226.77735 277.53057 277.53913 226.77205 340.15625 226.77148 A 56.69291 56.69291 0 0 0 346.66406 226.35938 A 56.69291 56.69291 0 0 0 356.91211 224.23828 A 56.692913 56.692913 0 0 0 362.23242 222.29688 A 56.69291 56.69291 0 0 0 362.23438 222.29492 A 56.692913 56.692913 0 0 0 367.33594 219.83203 A 56.69291 56.69291 0 0 0 367.33789 219.83008 A 56.692913 56.692913 0 0 0 372.16797 216.86914 A 56.69291 56.69291 0 0 0 380.54102 209.8418 A 56.692913 56.692913 0 0 0 380.82422 209.57812 A 56.69291 56.69291 0 0 0 380.82617 209.57617 A 56.692913 56.692913 0 0 0 384.56445 205.32031 A 56.69291 56.69291 0 0 0 384.56641 205.31836 A 56.692913 56.692913 0 0 0 387.86133 200.71094 A 56.69291 56.69291 0 0 0 387.86328 200.70898 A 56.692913 56.692913 0 0 0 390.68164 195.79492 A 56.69291 56.69291 0 0 0 390.68164 195.79297 A 56.692913 56.692913 0 0 0 392.99609 190.62305 A 56.69291 56.69291 0 0 0 392.99609 190.62109 A 56.692913 56.692913 0 0 0 394.7832 185.24414 A 56.69291 56.69291 0 0 0 394.7832 185.24219 A 56.692913 56.692913 0 0 0 395.0625 184.00195 A 56.692913 56.692913 0 0 0 396.625 174.77148 A 56.692913 56.692913 0 0 0 396.70703 174.08984 A 56.69291 56.69291 0 0 0 396.70703 174.08789 A 56.692913 56.692913 0 0 0 396.84961 170.08008 A 56.69291 56.69291 0 0 0 340.15625 113.38672 C 277.55777 113.38721 226.80711 62.659852 226.76953 0.0703125 C 226.76954 0.042877555 226.77148 0.015718472 226.77148 -0.01171875 A 56.69291 56.69291 0 0 0 170.08008 -56.705078 z "
       transform="matrix(0.26458333,0,0,0.26458333,0,207)"
       id="path904" />
    <circle
       r="30"
       cy="207"
       cx="0"
       id="circle2992"
       style="opacity:1;fill:#ffffff;fill-opacity:1;stroke:none;stroke-width:0.1;stroke-linecap:round;stroke-linejoin:round;stroke-miterlimit:4;stroke-dasharray:none;stroke-opacity:1;paint-order:stroke fill markers" />
    <circle
       r="30.000002"
       cy="297"
       cx="90"
       id="circle2992-3"
       style="opacity:1;fill:#ffffff;fill-opacity:1;stroke:none;stroke-width:0.1;stroke-linecap:round;stroke-linejoin:round;stroke-miterlimit:4;stroke-dasharray:none;stroke-opacity:1;paint-order:stroke fill markers" />
  </g>
</svg>
